# xmcd
#
# Track frame offsets: 
#        150
#        8445
#        28336
#        49637
#        79064
#        100262
#        118250
#        131153
#        151729
#
# Disc length: 2378 seconds
#
# Revision: 0
# Processed by: cddbd v1.5.2PL0 Copyright (c) Steve Scherf et al.
# Submitted via: ExactAudioCopyFreeDBPlugin 1.0
#
DISCID=69094809
DTITLE=The Tree People - Human Voices
DYEAR=1984
DGENRE=
TTITLE0=Human Voices
TTITLE1=Grandfather
TTITLE2=Opus II
TTITLE3=Things Fall Apart
TTITLE4=Thomas
TTITLE5=Rain, Rain
TTITLE6=Dance
TTITLE7=If That's Entertainment
TTITLE8=Sketches
EXTD=
EXTT0=
EXTT1=
EXTT2=
EXTT3=
EXTT4=
EXTT5=
EXTT6=
EXTT7=
EXTT8=
PLAYORDER=
